<mxfile host="app.diagrams.net" agent="Mozilla/5.0 (Macintosh; Intel Mac OS X 10_15_7) AppleWebKit/537.36 (KHTML, like Gecko) Chrome/131.0.0.0 Safari/537.36" version="26.0.3">
  <diagram name="Page-1" id="vEkWbZVgikMAgtwKRkSv">
    <mxGraphModel dx="932" dy="554" grid="1" gridSize="10" guides="1" tooltips="1" connect="1" arrows="1" fold="1" page="1" pageScale="1" pageWidth="850" pageHeight="1100" math="0" shadow="0">
      <root>
        <mxCell id="0" />
        <mxCell id="1" parent="0" />
        <mxCell id="XlAGAPCkgzhU8pyfM2_S-1" value="VPC 10.0.0.0/16" style="sketch=0;outlineConnect=0;gradientColor=none;html=1;whiteSpace=wrap;fontSize=12;fontStyle=0;shape=mxgraph.aws4.group;grIcon=mxgraph.aws4.group_vpc;strokeColor=#879196;fillColor=none;verticalAlign=top;align=left;spacingLeft=30;fontColor=#879196;dashed=0;" vertex="1" parent="1">
          <mxGeometry x="100" y="30" width="770" height="500" as="geometry" />
        </mxCell>
        <mxCell id="XlAGAPCkgzhU8pyfM2_S-2" value="AZ us-west-2a" style="sketch=0;outlineConnect=0;html=1;whiteSpace=wrap;fontSize=12;fontStyle=0;shape=mxgraph.aws4.group;grIcon=mxgraph.aws4.group_availability_zone;strokeColor=#d79b00;fillColor=#ffe6cc;verticalAlign=top;align=left;spacingLeft=30;dashed=1;" vertex="1" parent="1">
          <mxGeometry x="130" y="80" width="210" height="400" as="geometry" />
        </mxCell>
        <mxCell id="XlAGAPCkgzhU8pyfM2_S-3" value="AZ us-west-2b" style="sketch=0;outlineConnect=0;html=1;whiteSpace=wrap;fontSize=12;fontStyle=0;shape=mxgraph.aws4.group;grIcon=mxgraph.aws4.group_availability_zone;strokeColor=#b85450;fillColor=#f8cecc;verticalAlign=top;align=left;spacingLeft=30;dashed=1;" vertex="1" parent="1">
          <mxGeometry x="350" y="85" width="190" height="395" as="geometry" />
        </mxCell>
        <mxCell id="XlAGAPCkgzhU8pyfM2_S-4" value="AZ us-west-2c" style="sketch=0;outlineConnect=0;html=1;whiteSpace=wrap;fontSize=12;fontStyle=0;shape=mxgraph.aws4.group;grIcon=mxgraph.aws4.group_availability_zone;strokeColor=#9673a6;fillColor=#e1d5e7;verticalAlign=top;align=left;spacingLeft=30;dashed=1;" vertex="1" parent="1">
          <mxGeometry x="560" y="85" width="210" height="395" as="geometry" />
        </mxCell>
        <mxCell id="XlAGAPCkgzhU8pyfM2_S-17" style="edgeStyle=orthogonalEdgeStyle;rounded=0;orthogonalLoop=1;jettySize=auto;html=1;" edge="1" parent="1" source="XlAGAPCkgzhU8pyfM2_S-5" target="XlAGAPCkgzhU8pyfM2_S-7">
          <mxGeometry relative="1" as="geometry" />
        </mxCell>
        <mxCell id="XlAGAPCkgzhU8pyfM2_S-5" value="Public 10.0.0.0/24" style="sketch=0;outlineConnect=0;html=1;whiteSpace=wrap;fontSize=12;fontStyle=0;shape=mxgraph.aws4.group;grIcon=mxgraph.aws4.group_subnet;strokeColor=#d6b656;fillColor=#fff2cc;verticalAlign=top;align=left;spacingLeft=30;dashed=0;" vertex="1" parent="1">
          <mxGeometry x="150" y="120" width="160" height="120" as="geometry" />
        </mxCell>
        <mxCell id="XlAGAPCkgzhU8pyfM2_S-20" style="edgeStyle=orthogonalEdgeStyle;rounded=0;orthogonalLoop=1;jettySize=auto;html=1;" edge="1" parent="1" source="XlAGAPCkgzhU8pyfM2_S-6" target="XlAGAPCkgzhU8pyfM2_S-8">
          <mxGeometry relative="1" as="geometry" />
        </mxCell>
        <mxCell id="XlAGAPCkgzhU8pyfM2_S-6" value="Private 10.0.10.0/24" style="sketch=0;outlineConnect=0;html=1;whiteSpace=wrap;fontSize=12;fontStyle=0;shape=mxgraph.aws4.group;grIcon=mxgraph.aws4.group_subnet;strokeColor=#6c8ebf;fillColor=#dae8fc;verticalAlign=top;align=left;spacingLeft=30;dashed=0;" vertex="1" parent="1">
          <mxGeometry x="150" y="300" width="160" height="120" as="geometry" />
        </mxCell>
        <mxCell id="XlAGAPCkgzhU8pyfM2_S-18" style="edgeStyle=orthogonalEdgeStyle;rounded=0;orthogonalLoop=1;jettySize=auto;html=1;" edge="1" parent="1" source="XlAGAPCkgzhU8pyfM2_S-7" target="XlAGAPCkgzhU8pyfM2_S-9">
          <mxGeometry relative="1" as="geometry" />
        </mxCell>
        <mxCell id="XlAGAPCkgzhU8pyfM2_S-7" value="Public 10.0.1.0/24" style="sketch=0;outlineConnect=0;html=1;whiteSpace=wrap;fontSize=12;fontStyle=0;shape=mxgraph.aws4.group;grIcon=mxgraph.aws4.group_subnet;strokeColor=#d6b656;fillColor=#fff2cc;verticalAlign=top;align=left;spacingLeft=30;dashed=0;" vertex="1" parent="1">
          <mxGeometry x="365" y="120" width="160" height="120" as="geometry" />
        </mxCell>
        <mxCell id="XlAGAPCkgzhU8pyfM2_S-21" style="edgeStyle=orthogonalEdgeStyle;rounded=0;orthogonalLoop=1;jettySize=auto;html=1;" edge="1" parent="1" source="XlAGAPCkgzhU8pyfM2_S-8" target="XlAGAPCkgzhU8pyfM2_S-10">
          <mxGeometry relative="1" as="geometry" />
        </mxCell>
        <mxCell id="XlAGAPCkgzhU8pyfM2_S-8" value="Private 10.0.11.0/24" style="sketch=0;outlineConnect=0;html=1;whiteSpace=wrap;fontSize=12;fontStyle=0;shape=mxgraph.aws4.group;grIcon=mxgraph.aws4.group_subnet;strokeColor=#6c8ebf;fillColor=#dae8fc;verticalAlign=top;align=left;spacingLeft=30;dashed=0;" vertex="1" parent="1">
          <mxGeometry x="365" y="300" width="160" height="120" as="geometry" />
        </mxCell>
        <mxCell id="XlAGAPCkgzhU8pyfM2_S-19" style="edgeStyle=orthogonalEdgeStyle;rounded=0;orthogonalLoop=1;jettySize=auto;html=1;" edge="1" parent="1" source="XlAGAPCkgzhU8pyfM2_S-9" target="XlAGAPCkgzhU8pyfM2_S-12">
          <mxGeometry relative="1" as="geometry" />
        </mxCell>
        <mxCell id="XlAGAPCkgzhU8pyfM2_S-9" value="Public 10.0.2.0/24" style="sketch=0;outlineConnect=0;html=1;whiteSpace=wrap;fontSize=12;fontStyle=0;shape=mxgraph.aws4.group;grIcon=mxgraph.aws4.group_subnet;strokeColor=#d6b656;fillColor=#fff2cc;verticalAlign=top;align=left;spacingLeft=30;dashed=0;" vertex="1" parent="1">
          <mxGeometry x="585" y="120" width="160" height="120" as="geometry" />
        </mxCell>
        <mxCell id="XlAGAPCkgzhU8pyfM2_S-22" style="edgeStyle=orthogonalEdgeStyle;rounded=0;orthogonalLoop=1;jettySize=auto;html=1;" edge="1" parent="1" source="XlAGAPCkgzhU8pyfM2_S-10" target="XlAGAPCkgzhU8pyfM2_S-13">
          <mxGeometry relative="1" as="geometry" />
        </mxCell>
        <mxCell id="XlAGAPCkgzhU8pyfM2_S-10" value="Private 10.0.12.0/24" style="sketch=0;outlineConnect=0;html=1;whiteSpace=wrap;fontSize=12;fontStyle=0;shape=mxgraph.aws4.group;grIcon=mxgraph.aws4.group_subnet;strokeColor=#6c8ebf;fillColor=#dae8fc;verticalAlign=top;align=left;spacingLeft=30;dashed=0;" vertex="1" parent="1">
          <mxGeometry x="585" y="300" width="165" height="120" as="geometry" />
        </mxCell>
        <mxCell id="XlAGAPCkgzhU8pyfM2_S-11" value="Internet&#xa;gateway" style="sketch=0;outlineConnect=0;fontColor=#232F3E;gradientColor=none;strokeColor=#232F3E;fillColor=#ffffff;dashed=0;verticalLabelPosition=bottom;verticalAlign=top;align=center;html=1;fontSize=12;fontStyle=0;aspect=fixed;shape=mxgraph.aws4.resourceIcon;resIcon=mxgraph.aws4.internet_gateway;" vertex="1" parent="1">
          <mxGeometry x="670" width="60" height="60" as="geometry" />
        </mxCell>
        <mxCell id="XlAGAPCkgzhU8pyfM2_S-16" style="edgeStyle=orthogonalEdgeStyle;rounded=0;orthogonalLoop=1;jettySize=auto;html=1;" edge="1" parent="1" source="XlAGAPCkgzhU8pyfM2_S-12" target="XlAGAPCkgzhU8pyfM2_S-11">
          <mxGeometry relative="1" as="geometry">
            <Array as="points">
              <mxPoint x="815" y="80" />
              <mxPoint x="700" y="80" />
            </Array>
          </mxGeometry>
        </mxCell>
        <mxCell id="XlAGAPCkgzhU8pyfM2_S-12" value="" style="sketch=0;outlineConnect=0;fontColor=#232F3E;gradientColor=none;fillColor=#8C4FFF;strokeColor=none;dashed=0;verticalLabelPosition=bottom;verticalAlign=top;align=center;html=1;fontSize=12;fontStyle=0;aspect=fixed;pointerEvents=1;shape=mxgraph.aws4.cloud_wan_transit_gateway_route_table_attachment;" vertex="1" parent="1">
          <mxGeometry x="780" y="130" width="70" height="70" as="geometry" />
        </mxCell>
        <mxCell id="XlAGAPCkgzhU8pyfM2_S-13" value="" style="sketch=0;outlineConnect=0;fontColor=#232F3E;gradientColor=none;fillColor=#8C4FFF;strokeColor=none;dashed=0;verticalLabelPosition=bottom;verticalAlign=top;align=center;html=1;fontSize=12;fontStyle=0;aspect=fixed;pointerEvents=1;shape=mxgraph.aws4.cloud_wan_transit_gateway_route_table_attachment;" vertex="1" parent="1">
          <mxGeometry x="780" y="325" width="70" height="70" as="geometry" />
        </mxCell>
        <mxCell id="XlAGAPCkgzhU8pyfM2_S-14" value="" style="ellipse;shape=cloud;whiteSpace=wrap;html=1;" vertex="1" parent="1">
          <mxGeometry x="810" width="30" height="20" as="geometry" />
        </mxCell>
        <mxCell id="XlAGAPCkgzhU8pyfM2_S-15" style="edgeStyle=orthogonalEdgeStyle;rounded=0;orthogonalLoop=1;jettySize=auto;html=1;entryX=0.07;entryY=0.4;entryDx=0;entryDy=0;entryPerimeter=0;" edge="1" parent="1" source="XlAGAPCkgzhU8pyfM2_S-11" target="XlAGAPCkgzhU8pyfM2_S-14">
          <mxGeometry relative="1" as="geometry" />
        </mxCell>
      </root>
    </mxGraphModel>
  </diagram>
</mxfile>
